<svg id="Calque_1" data-name="Calque 1" xmlns="http://www.w3.org/2000/svg" xmlns:xlink="http://www.w3.org/1999/xlink" viewBox="0 0 250.05 237.57">
<defs><style>


.cls-1{fill:white;stroke:#011c40;stroke-miterlimit:10;stroke-width:11px;}
.cls-2,.cls-3,.cls-4,.cls-5,.cls-6{opacity:0.98;}
.cls-2,.cls-3,.cls-4,.cls-5,.cls-6,.cls-7,.cls-8{isolation:isolate;}
.cls-2{fill:url(#Dégradé_sans_nom_12);}
.cls-3{fill:url(#Dégradé_sans_nom_11);}
.cls-4{fill:url(#Dégradé_sans_nom_10);}
.cls-5{fill:#333;}
.cls-6{fill:url(#Dégradé_sans_nom_6);}
.cls-7{opacity:0.5;fill:url(#Dégradé_sans_nom_3);}
.cls-8{opacity:0.44;fill:url(#Dégradé_sans_nom_3-2);}
.cls-9{fill:url(#Dégradé_sans_nom_2);}
.cls-10,.cls-12{fill:none;}
.cls-10{stroke:#036e00;stroke-width:1.86px;}
.cls-11{fill:url(#Dégradé_sans_nom_5);}
.cls-12{stroke-width:0.97px;stroke:url(#Dégradé_sans_nom_4);}
.cls-13{fill:url(#Dégradé_sans_nom_5-2);}</style>
<linearGradient id="Dégradé_sans_nom_12" x1="4724.07" y1="-1783.66" x2="4956.01" y2="-1783.66" gradientTransform="matrix(0.27, 0, 0, -0.27, -375.97, 73.73)" gradientUnits="userSpaceOnUse"><stop offset="0" stop-color="#d0d0d0"/><stop offset="1" stop-color="#f2f2f2"/></linearGradient><linearGradient id="Dégradé_sans_nom_11" x1="4291.58" y1="-1826.32" x2="4167.28" y2="-1824.17" gradientTransform="matrix(0.27, 0, 0, -0.27, -208.82, 71.09)" gradientUnits="userSpaceOnUse"><stop offset="0" stop-color="#a00"/><stop offset="1" stop-color="#f55"/></linearGradient><radialGradient id="Dégradé_sans_nom_10" cx="4063.48" cy="-1651.3" r="98.64" gradientTransform="matrix(0.32, 0, 0, -0.25, -366.23, 207.79)" gradientUnits="userSpaceOnUse"><stop offset="0" stop-color="#ff2a2a"/><stop offset="1" stop-color="#a00"/></radialGradient><linearGradient id="Dégradé_sans_nom_6" x1="4548.68" y1="-1741.14" x2="4587.77" y2="-1741.14" gradientTransform="matrix(0.27, 0, 0, -0.27, -309.15, 73.18)" gradientUnits="userSpaceOnUse"><stop offset="0" stop-color="#fff"/><stop offset="1" stop-color="#fff" stop-opacity="0"/></linearGradient><radialGradient id="Dégradé_sans_nom_3" cx="4477.07" cy="-10287.62" r="145.45" gradientTransform="matrix(0.27, 0, 0, -0.04, -276.23, 223.23)" gradientUnits="userSpaceOnUse"><stop offset="0"/><stop offset="1" stop-opacity="0"/></radialGradient><radialGradient id="Dégradé_sans_nom_3-2" cx="923.29" cy="-5469.06" r="25.03" gradientTransform="matrix(1, 0, 0, -0.09, -3.29, 175.58)" xlink:href="#Dégradé_sans_nom_3"/><linearGradient id="Dégradé_sans_nom_2" x1="915.26" y1="184.44" x2="915.26" y2="132.51" gradientTransform="matrix(1.01, 0, 0, -1.03, -6.74, 783.59)" gradientUnits="userSpaceOnUse"><stop offset="0" stop-color="#65cf61"/><stop offset="1" stop-color="#038a00"/></linearGradient><radialGradient id="Dégradé_sans_nom_5" cx="-434.6" cy="1483.64" r="18.08" gradientTransform="matrix(-0.54, 0.71, 0.76, 0.98, -1270.69, -988.16)" gradientUnits="userSpaceOnUse"><stop offset="0" stop-color="#eee"/><stop offset="1" stop-color="#dcdcdc"/></radialGradient><radialGradient id="Dégradé_sans_nom_4" cx="619.42" cy="261" r="25.66" gradientTransform="matrix(1.55, 0, 0, -1.15, -41.51, 884.59)" gradientUnits="userSpaceOnUse"><stop offset="0" stop-color="#eee"/><stop offset="1" stop-color="#eee" stop-opacity="0"/></radialGradient><radialGradient id="Dégradé_sans_nom_5-2" cx="-1174.92" cy="574.94" r="18.08" gradientTransform="matrix(-0.71, -0.54, -0.98, 0.76, -161.06, -894.88)" xlink:href="#Dégradé_sans_nom_5"/></defs><ellipse class="cls-1" cx="125.03" cy="118.78" rx="119.53" ry="113.28"/><g id="hot"><g id="g9507"><g id="g9491"><path id="path9349" class="cls-2" d="M947.3,474.12c-8.12,0-14.65,5.07-14.65,11.36V604.9c-8.92,4.36-14.84,12.05-14.84,20.82,0,13.59,14.21,24.59,31.76,24.59s31.76-11,31.76-24.59c0-9-6.19-16.8-15.44-21.09V485.48c0-6.28-6.53-11.36-14.65-11.36Z" transform="translate(-822.93 -447.11)"/><g id="g9345"><path id="rect9247" class="cls-3" d="M933.07,525.23v80.24c0,6.29,6.55,11.36,14.68,11.36h3.91c8.13,0,14.68-5.07,14.68-11.36V525.36a111.49,111.49,0,0,1-16.24,1.12,108.74,108.74,0,0,1-17-1.25Z" transform="translate(-822.93 -447.11)"/><path id="path9249" class="cls-4" d="M981.71,626.37C981.71,640,967.49,651,950,651s-31.77-11-31.77-24.59,14.22-24.6,31.77-24.6S981.71,612.78,981.71,626.37Z" transform="translate(-822.93 -447.11)"/></g><path id="path9353" class="cls-5" d="M947.1,474.25c-8.49,0-15.33,5.31-15.33,11.88V605.29c-8.93,4.48-14.84,12.24-14.84,21.09,0,13.86,14.53,25.11,32.43,25.11s32.44-11.25,32.44-25.11c0-9-6.18-16.94-15.43-21.36V486.14c0-6.57-6.85-11.89-15.33-11.89Zm0,1.05H951c7.75,0,14,4.83,14,10.83V605.57l.34.15c9,4.2,15.1,11.88,15.1,20.65,0,13.3-13.91,24.07-31.09,24.07s-31.08-10.77-31.08-24.07c0-8.59,5.79-16.11,14.53-20.38l.31-.14V486.13c0-6,6.22-10.84,14-10.84Z" transform="translate(-822.93 -447.11)"/><path id="rect9394" class="cls-6" d="M940.63,499h0c3,0,5.46,1.89,5.46,4.23v93.61c0,2.34-2.44,4.23-5.46,4.23h0c-3,0-5.46-1.89-5.46-4.23V503.22C935.17,500.88,937.62,499,940.63,499Z" transform="translate(-822.93 -447.11)"/></g><path id="path9503" class="cls-7" d="M989.79,659.51c0,3.41-17.86,6.17-39.88,6.17S910,662.92,910,659.51s17.86-6.18,39.89-6.18S989.79,656.09,989.79,659.51Z" transform="translate(-822.93 -447.11)"/></g></g><g id="layer1"><g id="g4382"><path id="path4346" class="cls-8" d="M945,648.22c0,1.19-11.21,2.16-25,2.16s-25-1-25-2.16,11.21-2.16,25-2.16,25,1,25,2.16Z" transform="translate(-822.93 -447.11)"/><path id="path4348" class="cls-9" d="M946.11,620.89a26.66,26.66,0,1,1-26.67-26.67,26.67,26.67,0,0,1,26.67,26.67Z" transform="translate(-822.93 -447.11)"/><path id="path4350" class="cls-10" d="M946.11,620.89a26.66,26.66,0,1,1-26.67-26.67,26.67,26.67,0,0,1,26.67,26.67Z" transform="translate(-822.93 -447.11)"/><rect id="rect4352" class="cls-11" x="82.7" y="170.5" width="27.65" height="6.56" rx="1.56"/><g id="g4354"><path id="path4356" class="cls-12" d="M919.44,595.43a25.46,25.46,0,1,0,25.49,25.46A25.46,25.46,0,0,0,919.44,595.43Z" transform="translate(-822.93 -447.11)"/></g><rect id="rect4372" class="cls-13" x="93.24" y="159.95" width="6.56" height="27.65" rx="1.56"/></g></g></svg>